<svg xmlns="http://www.w3.org/2000/svg" viewBox="0 0 132.82 156.93"><defs><style>.cls-1{fill:#072a40;}</style></defs><title>자산 3</title><g id="레이어_2" data-name="레이어 2"><g id="Layer_1" data-name="Layer 1"><polygon class="cls-1" points="118.32 99.78 100.79 99.78 100.79 82.25 103.49 82.25 103.49 97.08 115.62 97.08 115.62 2.7 17.19 2.7 17.19 97.08 32.02 97.08 32.02 99.78 14.49 99.78 14.49 0 118.32 0 118.32 99.78"/><polygon class="cls-1" points="41.46 99.78 38.77 99.78 38.77 55.28 63.04 55.28 63.04 57.98 41.46 57.98 41.46 99.78"/><rect class="cls-1" x="48.2" y="75.51" width="13.48" height="2.7"/><polygon class="cls-1" points="96.75 99.78 50.9 99.78 50.9 97.08 94.05 97.08 94.05 88.99 96.75 88.99 96.75 99.78"/><rect class="cls-1" x="85.96" y="75.51" width="30.04" height="2.7"/><path class="cls-1" d="M16.14,156.81a.46.46,0,0,1-.29.12H10.16a.39.39,0,0,1-.44-.44V125.78H.44a.4.4,0,0,1-.29-.15.46.46,0,0,1-.15-.34v-4.71a.56.56,0,0,1,.12-.32.36.36,0,0,1,.32-.17h25a.44.44,0,0,1,.35.17.49.49,0,0,1,.15.32v4.71a.44.44,0,0,1-.5.49H16.29v30.71A.39.39,0,0,1,16.14,156.81Z"/><path class="cls-1" d="M37.41,156.81a.63.63,0,0,1-.37.12H31.4a.58.58,0,0,1-.32-.12.39.39,0,0,1-.17-.32V120.58a.48.48,0,0,1,.17-.32.46.46,0,0,1,.32-.17H37a.49.49,0,0,1,.37.17.44.44,0,0,1,.17.32l0,14.42H51.71V120.58a.51.51,0,0,1,.13-.32.4.4,0,0,1,.36-.17h5.65a.46.46,0,0,1,.32.17.48.48,0,0,1,.17.32v35.91a.39.39,0,0,1-.17.32.58.58,0,0,1-.32.12H52.2c-.32,0-.49-.15-.49-.44V140.74H37.58v15.75A.36.36,0,0,1,37.41,156.81Z"/><path class="cls-1" d="M88.81,156.81a.48.48,0,0,1-.3.12H66.78a.56.56,0,0,1-.32-.12.36.36,0,0,1-.17-.32V120.58a.62.62,0,0,1,.49-.49H88a.41.41,0,0,1,.34.17.49.49,0,0,1,.15.32v4.71a.43.43,0,0,1-.49.49H73v9.47H87.09a.58.58,0,0,1,.32.12.39.39,0,0,1,.17.32v4.71a.45.45,0,0,1-.17.34.51.51,0,0,1-.32.15H73v10.35H88.51a.43.43,0,0,1,.3.15.56.56,0,0,1,.14.39v4.71A.42.42,0,0,1,88.81,156.81Z"/><path class="cls-1" d="M132.37,125.78H117.75v9.91h13.64a.43.43,0,0,1,.49.49v4.71a.55.55,0,0,1-.14.32.47.47,0,0,1-.35.17H117.75v15.11a.36.36,0,0,1-.17.32.63.63,0,0,1-.37.12h-5.64a.58.58,0,0,1-.32-.12.39.39,0,0,1-.17-.32V120.58a.48.48,0,0,1,.17-.32.46.46,0,0,1,.32-.17h20.8a.36.36,0,0,1,.32.17.57.57,0,0,1,.13.32v4.71C132.82,125.61,132.67,125.78,132.37,125.78Z"/></g></g></svg>