<svg xmlns="http://www.w3.org/2000/svg" viewBox="0 0 246.29 100.31"><defs><style>.cls-1{fill:#072a40;}</style></defs><title>자산 7</title><g id="레이어_2" data-name="레이어 2"><g id="Layer_1" data-name="Layer 1"><path class="cls-1" d="M79,92.43h1.19l-2,7.67H77l-2.07-6.25-2,6.25H71.77l-2-7.67H71l1.44,6.18,2-6.18h1.1l2,6.18Z"/><path class="cls-1" d="M90,92.43h1.2l-2,7.67H88.07L86,93.85l-2,6.25H82.84l-2-7.67h1.23l1.44,6.18,2-6.18h1.11l2,6.18Z"/><path class="cls-1" d="M101.09,92.43h1.2l-2,7.67H99.14l-2.06-6.25-2,6.25H93.91l-2-7.67h1.24l1.43,6.18,2-6.18h1.11l2,6.18Z"/><path class="cls-1" d="M104.45,98.43a.93.93,0,0,1,.69.27,1,1,0,0,1,0,1.34,1,1,0,0,1-1.38,0,1,1,0,0,1,0-1.34A.93.93,0,0,1,104.45,98.43Z"/><path class="cls-1" d="M111.51,98.93q.15-.11.15.09v.86a1.75,1.75,0,0,1-.68.29,3.56,3.56,0,0,1-.78.08,2.2,2.2,0,0,1-1.55-.42,2,2,0,0,1-.47-1.51v-5h-1.34v-.91h1.34v-1.9h1.2v1.9h2v.91h-2v4.79a3.74,3.74,0,0,0,0,.52.66.66,0,0,0,.13.34.5.5,0,0,0,.29.18,1.86,1.86,0,0,0,.52.06,2.64,2.64,0,0,0,.54-.07A2.2,2.2,0,0,0,111.51,98.93Z"/><path class="cls-1" d="M119.22,95.56v4.54H118V95.53a3.48,3.48,0,0,0-.35-1.75,1.34,1.34,0,0,0-1.26-.58,1.93,1.93,0,0,0-.88.21,2.38,2.38,0,0,0-.75.56,3,3,0,0,0-.52.84,2.81,2.81,0,0,0-.19,1.06v4.23h-1.21V88.68h1.21v4.94h0a2.49,2.49,0,0,1,1-1,3.11,3.11,0,0,1,1.43-.35,2.33,2.33,0,0,1,2.06.85A4.23,4.23,0,0,1,119.22,95.56Z"/><path class="cls-1" d="M124.32,92.25a3.09,3.09,0,0,1,2.4.92,3.85,3.85,0,0,1,.86,2.69v.57H122v.13a2.78,2.78,0,0,0,.73,2,2.54,2.54,0,0,0,1.88.68,4.18,4.18,0,0,0,2.49-.81q.15-.12.15.06v1a3.36,3.36,0,0,1-1.28.61,7.19,7.19,0,0,1-1.53.16,4.15,4.15,0,0,1-1.52-.27,3.27,3.27,0,0,1-1.18-.77,3.45,3.45,0,0,1-.76-1.24,4.74,4.74,0,0,1-.28-1.7,4.86,4.86,0,0,1,.27-1.66,3.82,3.82,0,0,1,.75-1.27,3.33,3.33,0,0,1,1.16-.83A3.8,3.8,0,0,1,124.32,92.25ZM122,95.52h4.34v-.06a2.45,2.45,0,0,0-.54-1.72,1.9,1.9,0,0,0-1.47-.58,2.07,2.07,0,0,0-.82.16,2.3,2.3,0,0,0-.7.46,2.59,2.59,0,0,0-.51.72,3.2,3.2,0,0,0-.3,1Z"/><path class="cls-1" d="M135,93.93V95h-5.91V93.93Z"/><path class="cls-1" d="M141,89.62l-.34-.09-.37,0a1.31,1.31,0,0,0-1,.34,1.89,1.89,0,0,0-.33,1.29v1.29h1.84v.91h-1.84v6.76h-1.19V93.34h-1.35v-.91h1.35V91a3.32,3.32,0,0,1,.17-1.11,1.89,1.89,0,0,1,1.27-1.19,3.33,3.33,0,0,1,1-.14,2.51,2.51,0,0,1,.51,0,1.5,1.5,0,0,1,.42.15v.82C141.1,89.62,141.05,89.66,141,89.62Z"/><path class="cls-1" d="M142.78,98.43a.93.93,0,0,1,.69.27,1,1,0,0,1,0,1.34,1,1,0,0,1-1.38,0,1,1,0,0,1,0-1.34A.93.93,0,0,1,142.78,98.43Z"/><path class="cls-1" d="M151.66,98.53c.11-.11.16-.09.16,0v.94a2.54,2.54,0,0,1-1,.6,4,4,0,0,1-1.21.18A4.75,4.75,0,0,1,148,100a3.31,3.31,0,0,1-1.24-.74,3.24,3.24,0,0,1-.8-1.24,4.81,4.81,0,0,1-.28-1.74,4.93,4.93,0,0,1,.27-1.68,3.38,3.38,0,0,1,.77-1.28,3.52,3.52,0,0,1,1.23-.83,4.72,4.72,0,0,1,2.82-.12,2.94,2.94,0,0,1,1,.54v1c0,.16,0,.18-.15,0a2.63,2.63,0,0,0-1-.56,3.81,3.81,0,0,0-1.08-.15,2.6,2.6,0,0,0-1.15.24,2.54,2.54,0,0,0-.82.66,3.05,3.05,0,0,0-.49,1,4.1,4.1,0,0,0-.17,1.18,4.21,4.21,0,0,0,.17,1.21,2.52,2.52,0,0,0,.51.94,2.06,2.06,0,0,0,.85.62,3,3,0,0,0,1.2.22,3,3,0,0,0,1.07-.18A3.25,3.25,0,0,0,151.66,98.53Z"/><path class="cls-1" d="M155.82,100.23a3.66,3.66,0,0,1-1.59-.32,3.07,3.07,0,0,1-1.11-.86,3.58,3.58,0,0,1-.66-1.27,5.56,5.56,0,0,1-.21-1.54,5.43,5.43,0,0,1,.23-1.6,3.46,3.46,0,0,1,.67-1.26,3.13,3.13,0,0,1,1.12-.83,4.15,4.15,0,0,1,3.1,0,3.13,3.13,0,0,1,1.12.83,3.48,3.48,0,0,1,.68,1.26,5.43,5.43,0,0,1,.22,1.6,5.56,5.56,0,0,1-.21,1.54,3.73,3.73,0,0,1-.65,1.27,3.25,3.25,0,0,1-1.11.86A3.74,3.74,0,0,1,155.82,100.23Zm0-1a2,2,0,0,0,1.71-.76,4.75,4.75,0,0,0,0-4.55,2.32,2.32,0,0,0-3.42,0,4.75,4.75,0,0,0,0,4.55A2,2,0,0,0,155.82,99.26Z"/><path class="cls-1" d="M161.71,98.43a.93.93,0,0,1,.69.27,1,1,0,0,1,0,1.34,1,1,0,0,1-1.38,0,1,1,0,0,1,0-1.34A.93.93,0,0,1,161.71,98.43Z"/><path class="cls-1" d="M167.89,95.58l3.71,4.52H170l-3-3.84h0l-.73.64v3.2h-1.21V88.68h1.21v7h0l3.33-3.24h1.49Z"/><path class="cls-1" d="M176.63,93.54a1.29,1.29,0,0,0-.41-.16,1.8,1.8,0,0,0-.49,0,1.72,1.72,0,0,0-.72.17,2,2,0,0,0-.63.5,2.7,2.7,0,0,0-.45.78,2.82,2.82,0,0,0-.17,1v4.33h-1.2l0-7.67h1.24l.05,1.11a2.24,2.24,0,0,1,2-1.29,3.78,3.78,0,0,1,.51,0,1.16,1.16,0,0,1,.43.15v1C176.8,93.6,176.74,93.62,176.63,93.54Z"/><path class="cls-1" d="M92.91,4.48a4.64,4.64,0,0,1-.34,1.79,4,4,0,0,1-.93,1.36,4.22,4.22,0,0,1-1.39.86,4.89,4.89,0,0,1-1.71.31H86l-.07,0a.09.09,0,0,1,0-.08V.28A.1.1,0,0,1,86,.2s0,0,.07,0h2.5a4.67,4.67,0,0,1,1.71.31,4.22,4.22,0,0,1,1.39.86,4.15,4.15,0,0,1,.93,1.37A4.63,4.63,0,0,1,92.91,4.48Zm-1.55,0a2.92,2.92,0,0,0-.81-2.23,3.16,3.16,0,0,0-2.24-.75h-.82v6h.82a3.12,3.12,0,0,0,2.24-.76A2.88,2.88,0,0,0,91.36,4.48Z"/><path class="cls-1" d="M99.85,8.77l-.07,0h-5.1l-.07,0a.09.09,0,0,1,0-.08V.28a.1.1,0,0,1,0-.08s0,0,.07,0h5a.12.12,0,0,1,.08,0,.1.1,0,0,1,0,.08v1.1a.11.11,0,0,1-.12.12H96.13V3.71h3.31a.13.13,0,0,1,.08,0,.09.09,0,0,1,0,.08v1.1a.09.09,0,0,1,0,.08s0,0-.08,0H96.13V7.46h3.65s0,0,.07,0a.12.12,0,0,1,0,.09v1.1A.11.11,0,0,1,99.85,8.77Z"/><path class="cls-1" d="M106.53,6.45a2.36,2.36,0,0,1-.22,1,2.27,2.27,0,0,1-.6.78,2.79,2.79,0,0,1-.93.51A3.7,3.7,0,0,1,103.6,9a3.59,3.59,0,0,1-1.07-.16,3,3,0,0,1-.84-.44,2.76,2.76,0,0,1-.62-.61,2.81,2.81,0,0,1-.39-.72c0-.09,0-.14.07-.15L102,6.35a.12.12,0,0,1,.12.09,2.33,2.33,0,0,0,.22.45,2.11,2.11,0,0,0,.35.38,1.79,1.79,0,0,0,.44.27,1.34,1.34,0,0,0,.51.11,1.55,1.55,0,0,0,1-.31,1,1,0,0,0,.38-.82,1.13,1.13,0,0,0-.3-.82,2.87,2.87,0,0,0-.75-.53,8.82,8.82,0,0,0-1-.42,4.44,4.44,0,0,1-1-.47,2.57,2.57,0,0,1-.75-.72,1.92,1.92,0,0,1-.3-1.12,2.26,2.26,0,0,1,.23-1,2.39,2.39,0,0,1,.6-.77,2.7,2.7,0,0,1,.85-.47,2.93,2.93,0,0,1,1-.17,3.86,3.86,0,0,1,.84.09,2.81,2.81,0,0,1,.77.27,2.57,2.57,0,0,1,.65.5,2.91,2.91,0,0,1,.5.74.13.13,0,0,1,0,.09.1.1,0,0,1-.06.08l-1.16.5A.1.1,0,0,1,105,2.2a1.3,1.3,0,0,0-.19-.31,1.92,1.92,0,0,0-.29-.28,1.72,1.72,0,0,0-.38-.2,1.33,1.33,0,0,0-.45-.08,1.18,1.18,0,0,0-.87.33,1,1,0,0,0-.33.75.77.77,0,0,0,.29.63,3.29,3.29,0,0,0,.75.43c.3.13.62.27,1,.4a4.86,4.86,0,0,1,1,.53,2.84,2.84,0,0,1,.74.8A2.36,2.36,0,0,1,106.53,6.45Z"/><path class="cls-1" d="M109.58,8.8h-1.32c-.07,0-.1,0-.1-.11V.28a.13.13,0,0,1,0-.08.1.1,0,0,1,.07,0h1.32a.13.13,0,0,1,.09,0,.13.13,0,0,1,0,.08V8.69C109.7,8.76,109.66,8.8,109.58,8.8Z"/><path class="cls-1" d="M116.52,5.25c-.07,0-.11,0-.11-.1V4a.1.1,0,0,1,.11-.11h3.54a.09.09,0,0,1,.07,0,.08.08,0,0,1,0,.08V4.7a4.19,4.19,0,0,1-.32,1.6A4.25,4.25,0,0,1,119,7.66a4.31,4.31,0,0,1-1.34.94,4.11,4.11,0,0,1-1.72.36,4.4,4.4,0,0,1-1.74-.35,4.73,4.73,0,0,1-1.43-1,4.43,4.43,0,0,1-1.31-3.17,4.48,4.48,0,0,1,1.31-3.17A4.48,4.48,0,0,1,115.91,0a4.15,4.15,0,0,1,1.85.4,4.69,4.69,0,0,1,1.44,1s0,.05,0,.1,0,.07,0,.08l-.92.78a.08.08,0,0,1-.09,0,.16.16,0,0,1-.08-.06,2.82,2.82,0,0,0-.91-.74,2.71,2.71,0,0,0-1.28-.29,2.78,2.78,0,0,0-1.14.24,2.81,2.81,0,0,0-.93.66,3.14,3.14,0,0,0-.63,1A3.32,3.32,0,0,0,113,4.48a3.43,3.43,0,0,0,.23,1.25,3.14,3.14,0,0,0,.63,1,2.81,2.81,0,0,0,.93.66,2.78,2.78,0,0,0,1.14.24A2.59,2.59,0,0,0,117,7.41a3,3,0,0,0,.84-.57,3,3,0,0,0,.54-.77,2,2,0,0,0,.19-.82Z"/><path class="cls-1" d="M128.5,8.73a1,1,0,0,1-.46.16,1.35,1.35,0,0,1-.53,0,.69.69,0,0,1-.4-.27L123.39,3V8.69a.09.09,0,0,1,0,.08.14.14,0,0,1-.09,0h-1.32a.11.11,0,0,1-.07,0,.09.09,0,0,1,0-.08V.6a.41.41,0,0,1,.2-.37,1,1,0,0,1,.46-.17,1.19,1.19,0,0,1,.53.06.63.63,0,0,1,.39.27L127.14,6V.28a.13.13,0,0,1,0-.08s0,0,.08,0h1.33s0,0,.08,0a.13.13,0,0,1,0,.08V8.37A.41.41,0,0,1,128.5,8.73Z"/><path class="cls-1" d="M138.89,1.46h-3.43V3.79h3.2a.1.1,0,0,1,.11.11V5a.13.13,0,0,1,0,.07.09.09,0,0,1-.08,0h-3.2V8.66a.09.09,0,0,1,0,.08.12.12,0,0,1-.08,0H134a.11.11,0,0,1-.07,0,.09.09,0,0,1,0-.08V.25a.1.1,0,0,1,0-.08s.05,0,.07,0h4.88a.08.08,0,0,1,.07,0,.13.13,0,0,1,0,.08v1.1C139,1.43,139,1.46,138.89,1.46Z"/><path class="cls-1" d="M146.72,7.05A2.89,2.89,0,0,1,146,8a3.22,3.22,0,0,1-1,.63,3.89,3.89,0,0,1-2.58,0,3.07,3.07,0,0,1-1-.63,2.89,2.89,0,0,1-.69-1,3.1,3.1,0,0,1-.26-1.27V.25s0,0,0-.08a.12.12,0,0,1,.08,0h1.32a.12.12,0,0,1,.09,0s0,0,0,.08V5.78a1.78,1.78,0,0,0,.46,1.3,1.85,1.85,0,0,0,2.49,0,1.75,1.75,0,0,0,.47-1.3V.25s0,0,0-.08a.08.08,0,0,1,.07,0h1.33a.09.09,0,0,1,.08,0s0,0,0,.08V5.78A3.1,3.1,0,0,1,146.72,7.05Z"/><path class="cls-1" d="M155.06,2.8a2.66,2.66,0,0,1-.42,1.52,2.57,2.57,0,0,1-1.12.92L155,8.31a.09.09,0,0,1-.07.14l-1.13.46c-.06,0-.11,0-.13,0L152,5.44h-1.38V8.66a.12.12,0,0,1,0,.08.15.15,0,0,1-.09,0h-1.32a.13.13,0,0,1-.08,0,.12.12,0,0,1,0-.08V.25s0,0,0-.08a.12.12,0,0,1,.08,0h3.21a3,3,0,0,1,1,.18,2.46,2.46,0,0,1,1.41,1.37A3,3,0,0,1,155.06,2.8Zm-1.56,0a1.2,1.2,0,0,0-.42-1A1.92,1.92,0,0,0,152,1.46h-1.31V4.12H152a1.85,1.85,0,0,0,1.13-.31A1.17,1.17,0,0,0,153.5,2.8Z"/><path class="cls-1" d="M163.39,8.7a1,1,0,0,1-.46.16,1.38,1.38,0,0,1-.53,0,.72.72,0,0,1-.4-.27L158.29,3V8.66a.09.09,0,0,1,0,.08.15.15,0,0,1-.09,0h-1.32a.1.1,0,0,1-.07,0,.1.1,0,0,1-.05-.08V.57a.42.42,0,0,1,.21-.37,1,1,0,0,1,.46-.17,1.21,1.21,0,0,1,.53.06.63.63,0,0,1,.39.27L162,6V.25a.13.13,0,0,1,0-.08.09.09,0,0,1,.08,0h1.32a.09.09,0,0,1,.08,0,.1.1,0,0,1,0,.08V8.34A.42.42,0,0,1,163.39,8.7Z"/><path class="cls-1" d="M167.19,8.76h-1.32c-.07,0-.1,0-.1-.1V.25a.13.13,0,0,1,0-.08.07.07,0,0,1,.07,0h1.32a.1.1,0,0,1,.09,0,.13.13,0,0,1,0,.08V8.66C167.31,8.73,167.27,8.76,167.19,8.76Z"/><path class="cls-1" d="M172.54,8.74a.08.08,0,0,1-.07,0h-1.33c-.07,0-.1,0-.1-.1V1.46h-2.17a.09.09,0,0,1-.07,0,.09.09,0,0,1,0-.08V.25a.13.13,0,0,1,0-.08.08.08,0,0,1,.08,0h5.86a.09.09,0,0,1,.08,0,.13.13,0,0,1,0,.08v1.1c0,.08,0,.11-.11.11h-2.15v7.2A.09.09,0,0,1,172.54,8.74Z"/><path class="cls-1" d="M182.53,7.05a2.79,2.79,0,0,1-.7,1,3.12,3.12,0,0,1-1,.63,3.59,3.59,0,0,1-1.28.22,3.64,3.64,0,0,1-1.29-.22,3.12,3.12,0,0,1-1-.63,2.89,2.89,0,0,1-.69-1,3.1,3.1,0,0,1-.25-1.27V.25a.1.1,0,0,1,0-.08.1.1,0,0,1,.08,0h1.32a.09.09,0,0,1,.08,0,.1.1,0,0,1,0,.08V5.78a1.79,1.79,0,0,0,.47,1.3,1.64,1.64,0,0,0,1.24.48,1.68,1.68,0,0,0,1.25-.48,1.79,1.79,0,0,0,.47-1.3V.25a.13.13,0,0,1,0-.08s.05,0,.07,0h1.34a.1.1,0,0,1,.08,0,.13.13,0,0,1,0,.08V5.78A3.1,3.1,0,0,1,182.53,7.05Z"/><path class="cls-1" d="M190.87,2.8a2.59,2.59,0,0,1-.43,1.52,2.49,2.49,0,0,1-1.11.92l1.52,3.07a.09.09,0,0,1-.07.14l-1.13.46c-.07,0-.11,0-.14,0l-1.69-3.44h-1.38V8.66a.09.09,0,0,1,0,.08.11.11,0,0,1-.08,0H185a.11.11,0,0,1-.07,0,.09.09,0,0,1,0-.08V.25a.1.1,0,0,1,0-.08s.05,0,.07,0h3.21a3,3,0,0,1,1.05.18,2.55,2.55,0,0,1,.85.53,2.47,2.47,0,0,1,.56.84A2.83,2.83,0,0,1,190.87,2.8Zm-1.56,0a1.2,1.2,0,0,0-.42-1,1.93,1.93,0,0,0-1.14-.31h-1.31V4.12h1.31a1.86,1.86,0,0,0,1.14-.31A1.17,1.17,0,0,0,189.31,2.8Z"/><path class="cls-1" d="M197.81,8.74a.1.1,0,0,1-.07,0h-5.09a.12.12,0,0,1-.08,0,.09.09,0,0,1,0-.08V.25a.1.1,0,0,1,0-.08.1.1,0,0,1,.08,0h5a.08.08,0,0,1,.08,0,.1.1,0,0,1,0,.08v1.1c0,.08,0,.11-.12.11H194.1V3.68h3.31l.07,0a.09.09,0,0,1,0,.08v1.1a.09.09,0,0,1,0,.08s0,0-.07,0H194.1V7.43h3.64a.09.09,0,0,1,.07,0,.12.12,0,0,1,0,.09v1.1A.11.11,0,0,1,197.81,8.74Z"/><path class="cls-1" d="M208.38,6.45a2.51,2.51,0,0,1-.21,1,2.43,2.43,0,0,1-.61.78,2.74,2.74,0,0,1-.92.51,3.76,3.76,0,0,1-1.19.18,3.59,3.59,0,0,1-1.07-.16,3,3,0,0,1-.84-.44,3,3,0,0,1-.62-.61,2.81,2.81,0,0,1-.39-.72c0-.09,0-.14.07-.15l1.24-.53a.12.12,0,0,1,.12.09,1.92,1.92,0,0,0,.23.45,2.05,2.05,0,0,0,.34.38,1.79,1.79,0,0,0,.44.27,1.35,1.35,0,0,0,.52.11,1.54,1.54,0,0,0,1-.31,1,1,0,0,0,.38-.82,1.13,1.13,0,0,0-.3-.82,2.81,2.81,0,0,0-.74-.53,10,10,0,0,0-1-.42,4.66,4.66,0,0,1-1-.47,2.57,2.57,0,0,1-.75-.72,2,2,0,0,1-.29-1.12,2.26,2.26,0,0,1,.22-1,2.39,2.39,0,0,1,.6-.77,2.81,2.81,0,0,1,.85-.47,3,3,0,0,1,1-.17,4,4,0,0,1,.85.09,2.87,2.87,0,0,1,.76.27,2.4,2.4,0,0,1,.65.5,2.67,2.67,0,0,1,.5.74s0,0,0,.09,0,.07-.05.08l-1.17.5c-.06,0-.1,0-.13-.07a1.35,1.35,0,0,0-.2-.31,1.54,1.54,0,0,0-.29-.28,1.52,1.52,0,0,0-.38-.2,1.23,1.23,0,0,0-.44-.08,1.18,1.18,0,0,0-.88.33,1,1,0,0,0-.33.75.75.75,0,0,0,.3.63,3.43,3.43,0,0,0,.74.43c.3.13.63.27,1,.4a5.07,5.07,0,0,1,1,.53,2.58,2.58,0,0,1,.74.8A2.36,2.36,0,0,1,208.38,6.45Z"/><path class="cls-1" d="M213,8.77a.11.11,0,0,1-.07,0h-1.33c-.07,0-.1,0-.1-.11V1.5h-2.18s0,0-.07,0a.11.11,0,0,1,0-.08V.28a.13.13,0,0,1,0-.08.1.1,0,0,1,.07,0h5.87s.05,0,.08,0a.13.13,0,0,1,0,.08v1.1c0,.08,0,.12-.11.12h-2.15V8.69A.12.12,0,0,1,213,8.77Z"/><path class="cls-1" d="M223,7.08a2.79,2.79,0,0,1-.7,1,3.12,3.12,0,0,1-1,.63,3.89,3.89,0,0,1-2.58,0,3.17,3.17,0,0,1-1-.63,2.89,2.89,0,0,1-.69-1,3.1,3.1,0,0,1-.25-1.27V.28a.1.1,0,0,1,0-.08.13.13,0,0,1,.07,0h1.32a.18.18,0,0,1,.09,0,.1.1,0,0,1,0,.08V5.81a1.79,1.79,0,0,0,.47,1.3,1.63,1.63,0,0,0,1.23.48,1.7,1.7,0,0,0,1.26-.48,1.79,1.79,0,0,0,.47-1.3V.28a.13.13,0,0,1,0-.08.13.13,0,0,1,.07,0h1.33a.12.12,0,0,1,.08,0,.1.1,0,0,1,0,.08V5.81A3.27,3.27,0,0,1,223,7.08Z"/><path class="cls-1" d="M232.33,4.48A4.64,4.64,0,0,1,232,6.27a4,4,0,0,1-.93,1.36,4.17,4.17,0,0,1-1.4.86,4.79,4.79,0,0,1-1.7.31h-2.5a.11.11,0,0,1-.07,0,.09.09,0,0,1,0-.08V.28a.1.1,0,0,1,0-.08.13.13,0,0,1,.07,0H228a4.58,4.58,0,0,1,1.7.31,4.17,4.17,0,0,1,1.4.86A4.15,4.15,0,0,1,232,2.7,4.63,4.63,0,0,1,232.33,4.48Zm-1.56,0a2.91,2.91,0,0,0-.8-2.23,3.18,3.18,0,0,0-2.24-.75h-.82v6h.82A3.14,3.14,0,0,0,230,6.7,2.87,2.87,0,0,0,230.77,4.48Z"/><path class="cls-1" d="M235.48,8.8h-1.32c-.07,0-.1,0-.1-.11V.28a.12.12,0,0,1,0-.08.12.12,0,0,1,.08,0h1.32a.13.13,0,0,1,.09,0,.13.13,0,0,1,0,.08V8.69C235.6,8.76,235.56,8.8,235.48,8.8Z"/><path class="cls-1" d="M246.29,4.48a4.31,4.31,0,0,1-.35,1.75,4.45,4.45,0,0,1-1,1.42,4.68,4.68,0,0,1-1.42,1,4.55,4.55,0,0,1-3.5,0,4.68,4.68,0,0,1-1.42-1,4.45,4.45,0,0,1-1-1.42,4.31,4.31,0,0,1-.35-1.75,4.23,4.23,0,0,1,.35-1.74,4.39,4.39,0,0,1,1-1.43,4.35,4.35,0,0,1,1.42-1,4.55,4.55,0,0,1,3.5,0,4.35,4.35,0,0,1,1.42,1,4.39,4.39,0,0,1,1,1.43A4.23,4.23,0,0,1,246.29,4.48Zm-1.55,0a3.13,3.13,0,0,0-.23-1.23,3.3,3.3,0,0,0-.62-1,3,3,0,0,0-.94-.66,2.83,2.83,0,0,0-2.28,0,2.81,2.81,0,0,0-.93.66,3.14,3.14,0,0,0-.63,1,3.32,3.32,0,0,0-.23,1.23,3.43,3.43,0,0,0,.23,1.25,3.14,3.14,0,0,0,.63,1,2.81,2.81,0,0,0,.93.66,2.83,2.83,0,0,0,2.28,0,3,3,0,0,0,.94-.66,3.3,3.3,0,0,0,.62-1A3.23,3.23,0,0,0,244.74,4.48Z"/><polygon class="cls-1" points="0 0 0 64.24 12.27 64.24 12.27 61.34 2.9 61.34 2.9 2.9 63.89 2.9 63.89 47.71 43.95 47.71 43.95 50.61 63.89 50.61 63.89 61.34 57.43 61.34 57.43 53.17 54.52 53.17 54.52 64.24 66.8 64.24 66.8 0 0 0"/><polygon class="cls-1" points="31.87 34.93 15.34 34.93 15.34 64.24 18.24 64.24 18.24 37.83 31.87 37.83 31.87 34.93"/><rect class="cls-1" x="21.3" y="47.71" width="9.72" height="2.9"/><polygon class="cls-1" points="47.87 61.34 23 61.34 23 64.24 50.77 64.24 50.77 56.23 47.87 56.23 47.87 61.34"/><path class="cls-1" d="M106.3,64.09a.54.54,0,0,1-.35.15H99.13a.47.47,0,0,1-.53-.53V26.89H87.48a.51.51,0,0,1-.35-.17A.58.58,0,0,1,87,26.3V20.66a.64.64,0,0,1,.15-.38.44.44,0,0,1,.38-.21h30a.54.54,0,0,1,.41.21.61.61,0,0,1,.17.38V26.3a.51.51,0,0,1-.58.59h-11V63.71A.45.45,0,0,1,106.3,64.09Z"/><path class="cls-1" d="M131.8,64.09a.75.75,0,0,1-.44.15h-6.77a.68.68,0,0,1-.38-.15.43.43,0,0,1-.21-.38v-43a.55.55,0,0,1,.21-.38.59.59,0,0,1,.38-.21h6.77a.63.63,0,0,1,.44.21.53.53,0,0,1,.2.38L131.94,38h17V20.66a.64.64,0,0,1,.15-.38.51.51,0,0,1,.44-.21h6.76a.59.59,0,0,1,.39.21.57.57,0,0,1,.2.38V63.71a.44.44,0,0,1-.2.38.69.69,0,0,1-.39.15h-6.76c-.39,0-.59-.18-.59-.53V44.83H132V63.71A.42.42,0,0,1,131.8,64.09Z"/><path class="cls-1" d="M193.41,64.09a.56.56,0,0,1-.35.15H167a.64.64,0,0,1-.38-.15.43.43,0,0,1-.21-.38v-43a.78.78,0,0,1,.59-.59h25.47a.54.54,0,0,1,.41.21.58.58,0,0,1,.18.38V26.3a.52.52,0,0,1-.59.59H174.41V38.24h16.94a.66.66,0,0,1,.38.15.46.46,0,0,1,.21.38v5.65a.52.52,0,0,1-.21.41.6.6,0,0,1-.38.18H174.41V57.42h18.65a.55.55,0,0,1,.35.17.64.64,0,0,1,.17.48v5.64A.44.44,0,0,1,193.41,64.09Z"/><path class="cls-1" d="M245.64,26.89H228.11V38.77h16.35a.52.52,0,0,1,.59.59V45a.6.6,0,0,1-.18.38.52.52,0,0,1-.41.21H228.11V63.71a.43.43,0,0,1-.21.38.71.71,0,0,1-.44.15H220.7a.64.64,0,0,1-.38-.15.43.43,0,0,1-.21-.38v-43a.78.78,0,0,1,.59-.59h24.94a.46.46,0,0,1,.38.21.62.62,0,0,1,.14.38V26.3C246.16,26.7,246,26.89,245.64,26.89Z"/></g></g></svg>