<svg xmlns="http://www.w3.org/2000/svg" viewBox="0 0 188.14 177.04"><defs><style>.cls-1{fill:#072a40;}</style></defs><title>자산 4</title><g id="레이어_2" data-name="레이어 2"><g id="Layer_1" data-name="Layer 1"><path class="cls-1" d="M8.19,171.8a5.37,5.37,0,0,1-.4,2.09,4.78,4.78,0,0,1-1.09,1.6,5.14,5.14,0,0,1-1.63,1,5.59,5.59,0,0,1-2,.35H.13l-.08,0a.11.11,0,0,1,0-.09v-9.87a.14.14,0,0,1,.05-.09.12.12,0,0,1,.08,0H3.06a5.59,5.59,0,0,1,2,.35,5,5,0,0,1,1.63,1,4.78,4.78,0,0,1,1.09,1.6A5.38,5.38,0,0,1,8.19,171.8Zm-1.82,0a3.43,3.43,0,0,0-1-2.62,3.69,3.69,0,0,0-2.63-.89h-1v7h1a3.69,3.69,0,0,0,2.63-.89A3.4,3.4,0,0,0,6.37,171.8Z"/><path class="cls-1" d="M16.33,176.82l-.08,0h-6a.16.16,0,0,1-.09,0,.1.1,0,0,1,0-.09v-9.87a.14.14,0,0,1,.13-.13h5.84a.13.13,0,0,1,.1,0,.18.18,0,0,1,0,.09v1.29a.12.12,0,0,1-.14.14H12v2.6h3.89a.12.12,0,0,1,.08,0A.1.1,0,0,1,16,171v1.3a.11.11,0,0,1-.05.09.12.12,0,0,1-.08,0H12v2.85h4.28a.12.12,0,0,1,.08,0,.18.18,0,0,1,0,.11v1.29A.13.13,0,0,1,16.33,176.82Z"/><path class="cls-1" d="M24.17,174.1a2.84,2.84,0,0,1-.26,1.22,2.65,2.65,0,0,1-.7.92,3.1,3.1,0,0,1-1.09.59,4.4,4.4,0,0,1-1.39.21,3.77,3.77,0,0,1-1.25-.19,3.29,3.29,0,0,1-1-.5,3.33,3.33,0,0,1-.73-.72,3.91,3.91,0,0,1-.46-.85q0-.15.09-.18l1.45-.62a.14.14,0,0,1,.14.11,2.21,2.21,0,0,0,.27.53,2.15,2.15,0,0,0,.4.45,1.94,1.94,0,0,0,.52.31,1.38,1.38,0,0,0,.6.13,1.77,1.77,0,0,0,1.14-.36,1.17,1.17,0,0,0,.45-1,1.28,1.28,0,0,0-.35-1,3,3,0,0,0-.87-.63,11,11,0,0,0-1.15-.49,5.11,5.11,0,0,1-1.15-.56,2.9,2.9,0,0,1-.87-.84,2.23,2.23,0,0,1-.36-1.31,2.72,2.72,0,0,1,1-2.11,3.15,3.15,0,0,1,1-.56,3.47,3.47,0,0,1,1.15-.19,4.62,4.62,0,0,1,1,.1,3.12,3.12,0,0,1,.9.32,3,3,0,0,1,.76.58,3.25,3.25,0,0,1,.59.87.13.13,0,0,1,0,.11.11.11,0,0,1-.07.09l-1.36.58c-.07,0-.12,0-.16-.08a1.93,1.93,0,0,0-.23-.36,2.13,2.13,0,0,0-.34-.33,2,2,0,0,0-.44-.23,1.51,1.51,0,0,0-.53-.09,1.41,1.41,0,0,0-1,.38,1.2,1.2,0,0,0-.39.89.85.85,0,0,0,.35.73,3.57,3.57,0,0,0,.87.51l1.14.47a5.23,5.23,0,0,1,1.14.62,3,3,0,0,1,.88.94A2.79,2.79,0,0,1,24.17,174.1Z"/><path class="cls-1" d="M27.75,176.85H26.2a.11.11,0,0,1-.12-.12v-9.87a.16.16,0,0,1,0-.09.1.1,0,0,1,.09,0h1.55a.11.11,0,0,1,.1,0,.18.18,0,0,1,0,.09v9.87C27.89,176.81,27.84,176.85,27.75,176.85Z"/><path class="cls-1" d="M35.89,172.7c-.09,0-.13,0-.13-.12v-1.31c0-.08,0-.12.13-.12h4.16l.08,0a.15.15,0,0,1,0,.09v.78a5,5,0,0,1-.37,1.88,5.15,5.15,0,0,1-1,1.59,5.07,5.07,0,0,1-1.57,1.11,5.23,5.23,0,0,1-4.06,0,5.37,5.37,0,0,1-1.68-1.12,5.45,5.45,0,0,1-1.12-1.67,5.31,5.31,0,0,1,0-4.09,5.15,5.15,0,0,1,2.8-2.8,5,5,0,0,1,2-.41,4.89,4.89,0,0,1,2.16.46A5.6,5.6,0,0,1,39,168.24a.16.16,0,0,1,0,.11.11.11,0,0,1,0,.1l-1.08.92a.1.1,0,0,1-.1,0,.23.23,0,0,1-.1-.07,3.33,3.33,0,0,0-2.56-1.22,3.24,3.24,0,0,0-1.35.29,3.51,3.51,0,0,0-1.09.78,3.68,3.68,0,0,0-.73,1.17,3.94,3.94,0,0,0,.73,4.08,3.51,3.51,0,0,0,1.09.78,3.23,3.23,0,0,0,1.35.28,3.1,3.1,0,0,0,1.27-.26,3.67,3.67,0,0,0,1-.67,3.23,3.23,0,0,0,.63-.91,2.26,2.26,0,0,0,.22-1Z"/><path class="cls-1" d="M49.94,176.78a1.16,1.16,0,0,1-.54.19,1.86,1.86,0,0,1-.62-.05.81.81,0,0,1-.47-.32L44,170v6.7a.11.11,0,0,1-.05.09.17.17,0,0,1-.1,0H42.25a.16.16,0,0,1-.09,0,.1.1,0,0,1,0-.09v-9.49a.48.48,0,0,1,.23-.43,1.14,1.14,0,0,1,.55-.2,1.64,1.64,0,0,1,.62.06A.79.79,0,0,1,44,167l4.37,6.56v-6.69a.12.12,0,0,1,0-.09.11.11,0,0,1,.09,0H50a.13.13,0,0,1,.1,0,.18.18,0,0,1,0,.09v9.5A.48.48,0,0,1,49.94,176.78Z"/><path class="cls-1" d="M62.13,168.25h-4V171h3.75c.09,0,.14,0,.14.13v1.3s0,.05,0,.09a.1.1,0,0,1-.09,0H58.11v4.16a.11.11,0,0,1,0,.09.17.17,0,0,1-.1,0H56.41l-.09,0a.12.12,0,0,1,0-.09v-9.88a.12.12,0,0,1,0-.08s.06-.05.09-.05h5.72a.11.11,0,0,1,.09.05.16.16,0,0,1,0,.08v1.3C62.25,168.21,62.21,168.25,62.13,168.25Z"/><path class="cls-1" d="M71.32,174.81a3.52,3.52,0,0,1-.81,1.15,3.85,3.85,0,0,1-1.22.73,4.54,4.54,0,0,1-3,0,3.69,3.69,0,0,1-1.21-.73,3.52,3.52,0,0,1-.81-1.15,3.65,3.65,0,0,1-.3-1.5v-6.49a.15.15,0,0,1,.05-.08.14.14,0,0,1,.09-.05h1.55a.14.14,0,0,1,.1.05.15.15,0,0,1,0,.08v6.49a2.1,2.1,0,0,0,.54,1.53,1.93,1.93,0,0,0,1.46.56,2,2,0,0,0,1.47-.56,2.11,2.11,0,0,0,.55-1.53v-6.49a.12.12,0,0,1,0-.08s0-.05.08-.05h1.56a.14.14,0,0,1,.1.05.12.12,0,0,1,0,.08v6.49A3.65,3.65,0,0,1,71.32,174.81Z"/><path class="cls-1" d="M81.11,169.82a3.14,3.14,0,0,1-.5,1.79,2.92,2.92,0,0,1-1.31,1.07l1.78,3.6a.12.12,0,0,1-.08.18l-1.32.53c-.08,0-.14,0-.16,0l-2-4H75.91v3.78a.12.12,0,0,1,0,.09.19.19,0,0,1-.1,0H74.21l-.08,0a.14.14,0,0,1,0-.09v-9.88a.21.21,0,0,1,.13-.13H78a3.53,3.53,0,0,1,1.23.21,2.89,2.89,0,0,1,1,.63,2.82,2.82,0,0,1,.66,1A3.22,3.22,0,0,1,81.11,169.82Zm-1.84,0a1.38,1.38,0,0,0-.49-1.2,2.21,2.21,0,0,0-1.33-.37H75.91v3.12h1.54a2.21,2.21,0,0,0,1.33-.36A1.39,1.39,0,0,0,79.27,169.82Z"/><path class="cls-1" d="M90.88,176.74a1.06,1.06,0,0,1-.54.19,1.45,1.45,0,0,1-.62-.05.8.8,0,0,1-.47-.32L84.89,170v6.71a.11.11,0,0,1,0,.09.17.17,0,0,1-.1,0H83.19l-.09,0a.12.12,0,0,1,0-.09v-9.5a.51.51,0,0,1,.23-.43,1.13,1.13,0,0,1,.55-.19,1.32,1.32,0,0,1,.62.06.79.79,0,0,1,.46.32l4.37,6.55v-6.69a.12.12,0,0,1,0-.08.14.14,0,0,1,.09-.05H91a.14.14,0,0,1,.1.05.12.12,0,0,1,0,.08v9.5A.48.48,0,0,1,90.88,176.74Z"/><path class="cls-1" d="M95.34,176.82H93.79c-.08,0-.13,0-.13-.12v-9.88a.2.2,0,0,1,0-.08.11.11,0,0,1,.09-.05h1.55a.12.12,0,0,1,.1.05.16.16,0,0,1,0,.08v9.88C95.47,176.78,95.43,176.82,95.34,176.82Z"/><path class="cls-1" d="M101.62,176.79a.16.16,0,0,1-.09,0H100a.11.11,0,0,1-.12-.12v-8.45H97.3a.1.1,0,0,1-.08,0,.1.1,0,0,1,0-.09v-1.3a.16.16,0,0,1,0-.08.11.11,0,0,1,.09-.05h6.88a.16.16,0,0,1,.13.13v1.3c0,.09,0,.13-.13.13h-2.52v8.45A.18.18,0,0,1,101.62,176.79Z"/><path class="cls-1" d="M113.33,174.81a3.4,3.4,0,0,1-.82,1.15,3.64,3.64,0,0,1-1.22.73,4.51,4.51,0,0,1-3,0,3.59,3.59,0,0,1-1.21-.73,3.52,3.52,0,0,1-.81-1.15,3.65,3.65,0,0,1-.3-1.5v-6.49a.15.15,0,0,1,0-.08.14.14,0,0,1,.09-.05h1.55a.16.16,0,0,1,.1.05.15.15,0,0,1,.05.08v6.49a2.1,2.1,0,0,0,.54,1.53,1.92,1.92,0,0,0,1.45.56,2,2,0,0,0,1.47-.56,2.07,2.07,0,0,0,.56-1.53v-6.49a.12.12,0,0,1,0-.08.1.1,0,0,1,.08-.05h1.56a.14.14,0,0,1,.1.05.2.2,0,0,1,0,.08v6.49A3.65,3.65,0,0,1,113.33,174.81Z"/><path class="cls-1" d="M123.12,169.82a3.14,3.14,0,0,1-.5,1.79,3,3,0,0,1-1.31,1.07l1.78,3.6c0,.09,0,.15-.08.18l-1.32.53c-.09,0-.14,0-.17,0l-2-4h-1.62v3.78a.11.11,0,0,1,0,.09.17.17,0,0,1-.1,0h-1.55l-.09,0a.12.12,0,0,1,0-.09v-9.88a.12.12,0,0,1,0-.08.21.21,0,0,1,.09-.05H120a3.53,3.53,0,0,1,1.23.21,3,3,0,0,1,1,.63,2.82,2.82,0,0,1,.66,1A3.4,3.4,0,0,1,123.12,169.82Zm-1.84,0a1.38,1.38,0,0,0-.49-1.2,2.21,2.21,0,0,0-1.33-.37h-1.54v3.12h1.54a2.21,2.21,0,0,0,1.33-.36A1.39,1.39,0,0,0,121.28,169.82Z"/><path class="cls-1" d="M131.26,176.79a.16.16,0,0,1-.09,0h-6a.16.16,0,0,1-.09,0,.14.14,0,0,1,0-.09v-9.88a.15.15,0,0,1,0-.08.14.14,0,0,1,.09-.05H131a.11.11,0,0,1,.09.05.12.12,0,0,1,0,.08v1.3c0,.09,0,.13-.13.13H126.9v2.61h3.88l.09,0a.11.11,0,0,1,0,.09v1.29a.14.14,0,0,1,0,.1.18.18,0,0,1-.09,0H126.9v2.84h4.27a.14.14,0,0,1,.09.05.15.15,0,0,1,0,.1v1.3A.18.18,0,0,1,131.26,176.79Z"/><path class="cls-1" d="M143.66,174.1a2.67,2.67,0,0,1-1,2.14,3,3,0,0,1-1.09.59,4.36,4.36,0,0,1-1.39.21,3.81,3.81,0,0,1-1.25-.19,3.29,3.29,0,0,1-1-.5,3.33,3.33,0,0,1-.73-.72,3.48,3.48,0,0,1-.45-.85c0-.1,0-.16.08-.18l1.45-.62a.13.13,0,0,1,.14.11,2.21,2.21,0,0,0,.27.53,2.47,2.47,0,0,0,.4.45,2.11,2.11,0,0,0,.52.31,1.44,1.44,0,0,0,.6.13,1.77,1.77,0,0,0,1.14-.36,1.17,1.17,0,0,0,.45-1,1.28,1.28,0,0,0-.35-1,3,3,0,0,0-.87-.63,10.19,10.19,0,0,0-1.15-.49,5.11,5.11,0,0,1-1.15-.56,2.9,2.9,0,0,1-.87-.84,2.22,2.22,0,0,1-.35-1.31,2.67,2.67,0,0,1,1-2.11,3.27,3.27,0,0,1,1-.56,3.47,3.47,0,0,1,1.15-.19,4.62,4.62,0,0,1,1,.1,3.12,3.12,0,0,1,.9.32,3,3,0,0,1,.76.58,3.25,3.25,0,0,1,.59.87.13.13,0,0,1,0,.11s0,.08-.06.09l-1.37.58c-.07,0-.12,0-.16-.08a1.93,1.93,0,0,0-.23-.36,2.13,2.13,0,0,0-.34-.33,2,2,0,0,0-.44-.23,1.51,1.51,0,0,0-.53-.09,1.41,1.41,0,0,0-1,.38,1.2,1.2,0,0,0-.39.89.85.85,0,0,0,.35.73,3.57,3.57,0,0,0,.87.51l1.14.47a5.23,5.23,0,0,1,1.14.62,3,3,0,0,1,.88.94A2.79,2.79,0,0,1,143.66,174.1Z"/><path class="cls-1" d="M149.09,176.82a.13.13,0,0,1-.08,0h-1.57a.11.11,0,0,1-.12-.12v-8.44h-2.55a.12.12,0,0,1-.08,0,.18.18,0,0,1,0-.1v-1.29a.12.12,0,0,1,0-.09.09.09,0,0,1,.08,0h6.88a.13.13,0,0,1,.1,0,.18.18,0,0,1,0,.09v1.29a.12.12,0,0,1-.14.14h-2.52v8.44A.1.1,0,0,1,149.09,176.82Z"/><path class="cls-1" d="M160.81,174.85A3.4,3.4,0,0,1,160,176a3.76,3.76,0,0,1-1.22.74,4.51,4.51,0,0,1-3,0,3.66,3.66,0,0,1-1.22-.74,3.37,3.37,0,0,1-.81-1.14,3.82,3.82,0,0,1-.29-1.5v-6.49a.12.12,0,0,1,0-.09.14.14,0,0,1,.09,0h1.55a.13.13,0,0,1,.1,0,.11.11,0,0,1,0,.09v6.49a2.07,2.07,0,0,0,.55,1.53,1.93,1.93,0,0,0,1.45.56,2,2,0,0,0,1.47-.56,2.07,2.07,0,0,0,.55-1.53v-6.49a.12.12,0,0,1,0-.09.12.12,0,0,1,.08,0H161a.14.14,0,0,1,.13.13v6.49A3.82,3.82,0,0,1,160.81,174.85Z"/><path class="cls-1" d="M171.75,171.8a5.19,5.19,0,0,1-.4,2.09,4.64,4.64,0,0,1-1.09,1.6,5,5,0,0,1-1.63,1,5.59,5.59,0,0,1-2,.35H163.7a.16.16,0,0,1-.09,0,.11.11,0,0,1-.05-.09v-9.87a.14.14,0,0,1,.05-.09.12.12,0,0,1,.09,0h2.92a5.59,5.59,0,0,1,2,.35,4.89,4.89,0,0,1,1.63,1,4.64,4.64,0,0,1,1.09,1.6A5.21,5.21,0,0,1,171.75,171.8Zm-1.82,0a3.43,3.43,0,0,0-1-2.62,3.67,3.67,0,0,0-2.63-.89h-.95v7h.95a3.67,3.67,0,0,0,2.63-.89A3.4,3.4,0,0,0,169.93,171.8Z"/><path class="cls-1" d="M175.45,176.85H173.9a.11.11,0,0,1-.12-.12v-9.87a.16.16,0,0,1,0-.09.11.11,0,0,1,.09,0h1.55a.11.11,0,0,1,.1,0,.12.12,0,0,1,0,.09v9.87C175.59,176.81,175.54,176.85,175.45,176.85Z"/><path class="cls-1" d="M188.14,171.8a5.16,5.16,0,0,1-.41,2,5.47,5.47,0,0,1-1.13,1.67,5.33,5.33,0,0,1-1.67,1.12,5.33,5.33,0,0,1-4.1,0,5.37,5.37,0,0,1-1.68-1.12,5.45,5.45,0,0,1-1.12-1.67,5.31,5.31,0,0,1,0-4.09,5.15,5.15,0,0,1,2.8-2.8,5.33,5.33,0,0,1,4.1,0,5.33,5.33,0,0,1,1.67,1.12,5.4,5.4,0,0,1,1.13,1.68A5.21,5.21,0,0,1,188.14,171.8Zm-1.82,0a3.82,3.82,0,0,0-.27-1.45,3.7,3.7,0,0,0-.74-1.17,3.4,3.4,0,0,0-1.09-.78,3.23,3.23,0,0,0-1.34-.29,3.16,3.16,0,0,0-1.34.29,3.44,3.44,0,0,0-1.1.78,3.68,3.68,0,0,0-.73,1.17,3.94,3.94,0,0,0,.73,4.08,3.44,3.44,0,0,0,1.1.78,3.16,3.16,0,0,0,1.34.28,3.22,3.22,0,0,0,1.34-.28,3.4,3.4,0,0,0,1.09-.78,3.84,3.84,0,0,0,1-2.63Z"/><polygon class="cls-1" points="145.98 99.78 128.45 99.78 128.45 82.25 131.15 82.25 131.15 97.08 143.28 97.08 143.28 2.7 44.85 2.7 44.85 97.08 59.69 97.08 59.69 99.78 42.16 99.78 42.16 0 145.98 0 145.98 99.78"/><polygon class="cls-1" points="69.12 99.78 66.43 99.78 66.43 55.28 90.7 55.28 90.7 57.98 69.12 57.98 69.12 99.78"/><rect class="cls-1" x="75.87" y="75.51" width="13.48" height="2.7"/><polygon class="cls-1" points="124.41 99.78 78.56 99.78 78.56 97.08 121.71 97.08 121.71 88.99 124.41 88.99 124.41 99.78"/><rect class="cls-1" x="113.62" y="75.51" width="30.04" height="2.7"/><path class="cls-1" d="M43.8,156.81a.44.44,0,0,1-.29.12H37.82a.39.39,0,0,1-.44-.44V125.78H28.1a.41.41,0,0,1-.29-.15.46.46,0,0,1-.15-.34v-4.71a.56.56,0,0,1,.12-.32.37.37,0,0,1,.32-.17h25a.42.42,0,0,1,.34.17.49.49,0,0,1,.15.32v4.71a.44.44,0,0,1-.49.49H44v30.71A.39.39,0,0,1,43.8,156.81Z"/><path class="cls-1" d="M65.07,156.81a.6.6,0,0,1-.36.12H59.06a.58.58,0,0,1-.32-.12.39.39,0,0,1-.17-.32V120.58a.48.48,0,0,1,.17-.32.46.46,0,0,1,.32-.17h5.65a.47.47,0,0,1,.36.17.46.46,0,0,1,.18.32l0,14.42H79.37V120.58a.57.57,0,0,1,.13-.32.4.4,0,0,1,.37-.17h5.64a.46.46,0,0,1,.32.17.48.48,0,0,1,.17.32v35.91a.39.39,0,0,1-.17.32.58.58,0,0,1-.32.12H79.87c-.33,0-.5-.15-.5-.44V140.74H65.25v15.75A.37.37,0,0,1,65.07,156.81Z"/><path class="cls-1" d="M116.47,156.81a.48.48,0,0,1-.3.12H94.44a.56.56,0,0,1-.32-.12.36.36,0,0,1-.17-.32V120.58a.62.62,0,0,1,.49-.49h21.24a.44.44,0,0,1,.35.17.53.53,0,0,1,.14.32v4.71a.43.43,0,0,1-.49.49H100.62v9.47h14.13a.58.58,0,0,1,.32.12.39.39,0,0,1,.17.32v4.71a.45.45,0,0,1-.17.34.51.51,0,0,1-.32.15H100.62v10.35h15.55a.43.43,0,0,1,.3.15.52.52,0,0,1,.14.39v4.71A.39.39,0,0,1,116.47,156.81Z"/><path class="cls-1" d="M160,125.78H145.41v9.91h13.64a.43.43,0,0,1,.49.49v4.71a.49.49,0,0,1-.14.32.47.47,0,0,1-.35.17H145.41v15.11a.36.36,0,0,1-.17.32.6.6,0,0,1-.36.12h-5.65a.58.58,0,0,1-.32-.12.39.39,0,0,1-.17-.32V120.58a.48.48,0,0,1,.17-.32.46.46,0,0,1,.32-.17H160a.35.35,0,0,1,.31.17.51.51,0,0,1,.13.32v4.71C160.48,125.61,160.33,125.78,160,125.78Z"/></g></g></svg>