<svg xmlns="http://www.w3.org/2000/svg" viewBox="0 0 267.05 64.24"><defs><style>.cls-1{fill:#072a40;}</style></defs><title>자산 5</title><g id="레이어_2" data-name="레이어 2"><g id="Layer_1" data-name="Layer 1"><polygon class="cls-1" points="0 0 0 64.24 12.27 64.24 12.27 61.34 2.9 61.34 2.9 2.9 63.89 2.9 63.89 47.71 43.95 47.71 43.95 50.61 63.89 50.61 63.89 61.34 57.43 61.34 57.43 53.17 54.52 53.17 54.52 64.24 66.8 64.24 66.8 0 0 0"/><polygon class="cls-1" points="31.87 34.93 15.34 34.93 15.34 64.24 18.24 64.24 18.24 37.83 31.87 37.83 31.87 34.93"/><rect class="cls-1" x="21.3" y="47.71" width="9.72" height="2.9"/><polygon class="cls-1" points="47.87 61.34 23 61.34 23 64.24 50.77 64.24 50.77 56.23 47.87 56.23 47.87 61.34"/><path class="cls-1" d="M108.84,56.94a.62.62,0,0,1-.4.16h-7.72a.53.53,0,0,1-.6-.6V14.86H87.55a.59.59,0,0,1-.4-.2.67.67,0,0,1-.2-.47V7.8a.79.79,0,0,1,.17-.43.49.49,0,0,1,.43-.23h33.93a.59.59,0,0,1,.47.23.72.72,0,0,1,.2.43v6.39a.6.6,0,0,1-.67.67H109V56.5A.56.56,0,0,1,108.84,56.94Z"/><path class="cls-1" d="M137.68,56.94a.83.83,0,0,1-.5.16h-7.65a.74.74,0,0,1-.43-.16.5.5,0,0,1-.23-.44V7.8a.63.63,0,0,1,.23-.43.62.62,0,0,1,.43-.23h7.65a.67.67,0,0,1,.5.23.63.63,0,0,1,.23.43l-.06,19.56h19.22V7.8a.79.79,0,0,1,.17-.43.56.56,0,0,1,.5-.23h7.65a.6.6,0,0,1,.43.23.65.65,0,0,1,.24.43V56.5a.51.51,0,0,1-.24.44.72.72,0,0,1-.43.16h-7.65c-.44,0-.67-.2-.67-.6V35.15H137.91V56.5A.5.5,0,0,1,137.68,56.94Z"/><path class="cls-1" d="M207.37,56.94a.6.6,0,0,1-.4.16H177.5a.74.74,0,0,1-.43-.16.5.5,0,0,1-.23-.44V7.8a.63.63,0,0,1,.23-.43.62.62,0,0,1,.43-.23h28.81a.58.58,0,0,1,.46.23.67.67,0,0,1,.2.43v6.39a.59.59,0,0,1-.66.67H185.88V27.7H205a.77.77,0,0,1,.44.16.52.52,0,0,1,.23.43v6.39a.63.63,0,0,1-.23.47.72.72,0,0,1-.44.2H185.88v14H207a.53.53,0,0,1,.4.2.69.69,0,0,1,.2.53V56.5A.53.53,0,0,1,207.37,56.94Z"/><path class="cls-1" d="M266.45,14.86H246.63V28.29h18.49a.6.6,0,0,1,.67.67v6.39a.7.7,0,0,1-.2.43.59.59,0,0,1-.47.23H246.63V56.5a.51.51,0,0,1-.24.44.83.83,0,0,1-.5.16h-7.65a.74.74,0,0,1-.43-.16.5.5,0,0,1-.23-.44V7.8a.63.63,0,0,1,.23-.43.62.62,0,0,1,.43-.23h28.21a.49.49,0,0,1,.43.23.72.72,0,0,1,.17.43v6.39C267.05,14.63,266.85,14.86,266.45,14.86Z"/></g></g></svg>