<svg xmlns="http://www.w3.org/2000/svg" viewBox="0 0 103.83 99.78"><defs><style>.cls-1{fill:#072a40;}</style></defs><title>자산 1</title><g id="레이어_2" data-name="레이어 2"><g id="Layer_1" data-name="Layer 1"><polygon class="cls-1" points="103.83 99.78 86.3 99.78 86.3 82.25 88.99 82.25 88.99 97.08 101.13 97.08 101.13 2.7 2.7 2.7 2.7 97.08 17.53 97.08 17.53 99.78 0 99.78 0 0 103.83 0 103.83 99.78"/><polygon class="cls-1" points="26.97 99.78 24.27 99.78 24.27 55.28 48.54 55.28 48.54 57.98 26.97 57.98 26.97 99.78"/><rect class="cls-1" x="33.71" y="75.51" width="13.48" height="2.7"/><polygon class="cls-1" points="82.25 99.78 36.41 99.78 36.41 97.08 79.56 97.08 79.56 88.99 82.25 88.99 82.25 99.78"/><rect class="cls-1" x="71.46" y="75.51" width="30.04" height="2.7"/></g></g></svg>